<?xml version="1.0" ?><svg id="Layer_1" style="enable-background:new 0 0 64 64;" version="1.1" viewBox="0 0 64 64" xml:space="preserve" xmlns="http://www.w3.org/2000/svg" xmlns:xlink="http://www.w3.org/1999/xlink"><path d="M46.2,18.8c-2.7-4.8-7.8-7.7-13.2-7.7c-2.9,0-2.9,4.4,0,4.4c7.6,0.1,12.9,8,9.9,15c-1.4,3.3-4.7,5.8-8.3,6.3  c-2,0.3-4.2,0.1-6.2,0.1s-4,0-5.9,0c1.4-1.4,2.9-2.9,4.3-4.3c2-2-1.1-5.2-3.1-3.1c-2.7,2.7-5.3,5.3-8,8c-0.9,0.9-0.9,2.3,0,3.1  c2.8,2.8,5.6,5.6,8.2,8.2c2,2,5.2-1.1,3.1-3.1c-1.4-1.4-2.9-2.9-4.3-4.3c1.9,0,3.9,0,5.8,0c2.8,0,5.7,0.2,8.3-0.4  C46.3,38.5,51,27.2,46.2,18.8z"/></svg>